<?xml version="1.0" encoding="UTF-8"?>
<!DOCTYPE svg PUBLIC "-//W3C//DTD SVG 1.1//EN" "http://www.w3.org/Graphics/SVG/1.1/DTD/svg11.dtd">
<svg xmlns="http://www.w3.org/2000/svg" version="1.1" width="169px" height="161px" style="shape-rendering:geometricPrecision; text-rendering:geometricPrecision; image-rendering:optimizeQuality; fill-rule:evenodd; clip-rule:evenodd" xmlns:xlink="http://www.w3.org/1999/xlink">
<g><path style="opacity:1" fill="#c9fcf5" d="M -0.5,-0.5 C 33.8333,-0.5 68.1667,-0.5 102.5,-0.5C 102.389,0.117425 102.056,0.617425 101.5,1C 75.9967,1.16783 50.6634,1.66783 25.5,2.5C 17.805,3.6859 12.6383,8.01923 10,15.5C 9.33333,52.5 9.33333,89.5 10,126.5C 11.7775,133.78 16.2775,138.113 23.5,139.5C 24.5676,140.434 25.901,140.768 27.5,140.5C 27.6397,149.27 31.9731,154.77 40.5,157C 44.8206,157.499 49.1539,157.666 53.5,157.5C 53.4431,158.609 53.1098,159.609 52.5,160.5C 34.8333,160.5 17.1667,160.5 -0.5,160.5C -0.5,106.833 -0.5,53.1667 -0.5,-0.5 Z"/></g>
<g><path style="opacity:1" fill="#f49f11" d="M 25.5,2.5 C 62.1682,2.33335 98.8348,2.50001 135.5,3C 143.287,5.73942 147.287,11.2394 147.5,19.5C 111.165,19.3333 74.8318,19.5 38.5,20C 32.4077,22.5861 28.741,27.0861 27.5,33.5C 26.5016,68.6627 26.1683,103.996 26.5,139.5C 25.5,139.5 24.5,139.5 23.5,139.5C 16.2775,138.113 11.7775,133.78 10,126.5C 9.33333,89.5 9.33333,52.5 10,15.5C 12.6383,8.01923 17.805,3.6859 25.5,2.5 Z"/></g>
<g><path style="opacity:1" fill="#4be4c9" d="M 147.5,19.5 C 155.264,19.7969 160.764,23.4635 164,30.5C 170.346,73.8268 156.846,109.327 123.5,137C 102.494,151.587 79.1606,158.42 53.5,157.5C 49.1539,157.666 44.8206,157.499 40.5,157C 31.9731,154.77 27.6397,149.27 27.5,140.5C 27.5,104.833 27.5,69.1667 27.5,33.5C 28.741,27.0861 32.4077,22.5861 38.5,20C 74.8318,19.5 111.165,19.3333 147.5,19.5 Z"/></g>
<g><path style="opacity:1" fill="#b6b854" d="M 27.5,33.5 C 27.5,69.1667 27.5,104.833 27.5,140.5C 25.901,140.768 24.5676,140.434 23.5,139.5C 24.5,139.5 25.5,139.5 26.5,139.5C 26.1683,103.996 26.5016,68.6627 27.5,33.5 Z"/></g>
<g><path style="opacity:1" fill="#c5fdf2" d="M 102.5,-0.5 C 124.5,-0.5 146.5,-0.5 168.5,-0.5C 168.5,53.1667 168.5,106.833 168.5,160.5C 129.833,160.5 91.1667,160.5 52.5,160.5C 53.1098,159.609 53.4431,158.609 53.5,157.5C 79.1606,158.42 102.494,151.587 123.5,137C 156.846,109.327 170.346,73.8268 164,30.5C 160.764,23.4635 155.264,19.7969 147.5,19.5C 147.287,11.2394 143.287,5.73942 135.5,3C 98.8348,2.50001 62.1682,2.33335 25.5,2.5C 50.6634,1.66783 75.9967,1.16783 101.5,1C 102.056,0.617425 102.389,0.117425 102.5,-0.5 Z"/></g>
</svg>
